<?xml version="1.0" encoding="utf-8"?>
<svg version="1.1" id="Layer_1" xmlns="http://www.w3.org/2000/svg" xmlns:xlink="http://www.w3.org/1999/xlink" x="0px" y="0px" viewBox="0 0 1080 1080" style="enable-background:new 0 0 1080 1080;" xml:space="preserve">
  <style type="text/css">
	.noFill{fill:none;}
  .container{fill:#69f0ae;}
	.n1{fill:#ff9800;}
  .n2{fill:#a96b10;}
	.n3{fill:#69f0ae;}
	.n4{fill:#418d8c;}
	.n5{fill:#64b5f6;}
</style>
  <polygon class="noFill" points="890.96,339.8 863.45,339.8 882.6,358.95" />
  <polygon class="noFill" points="195.66,740.4 216.71,740.4 202.05,725.74" />
  <polygon class="noFill" points="455.96,536.37 544.92,740.4 544.94,740.4 716.27,740.4 716.29,740.4 860.73,409.12 791.41,339.8,719.61,339.8 630.61,543.93 541.64,339.88 541.67,339.8 541.6,339.8 370.33,339.8 370.26,339.8 370.29,339.88 223.93,675.57,288.76,740.4 367,740.4" />
  <polygon class="container" points="1063.65,540 1045.64,521.99 911.35,387.7 889.48,437.87 991.61,540 539.98,991.62 326.6,778.24,254.56,778.24 539.98,1063.67" />
  <polygon class="container" points="88.36,540 539.98,88.38 753.56,301.96 825.61,301.96 539.98,16.33 16.31,540 173.3,696.99,195.18,646.82" />
  <g>
    <polygon class="container" points="369.14,339.8 369.17,339.88 369.21,339.8" />
    <polygon class="n1" points="194.54,740.4 365.88,740.4 454.85,536.37 369.17,339.88" />
    <polygon class="container" points="540.55,339.8 540.48,339.8 540.52,339.88" />
    <polygon class="n2" points="540.48,339.8 369.21,339.8 369.17,339.88 454.85,536.37 540.52,339.88" />
    <polygon class="n3" points="540.52,339.88 454.85,536.37 543.81,740.4 543.83,740.4 629.49,543.93" />
    <polygon class="n5" points="718.49,339.8 629.49,543.93 715.15,740.4 715.17,740.4 889.84,339.8" />
    <polygon class="n4" points="543.83,740.4 715.15,740.4 629.49,543.93" />
  </g>
</svg>
